<svg xmlns="http://www.w3.org/2000/svg" width="230.384" height="258.874"><path fill="#FBB03B" d="M89.798 241.84c-.475 4.655 2.912 8.816 7.566 9.291l.327.034c4.654.476 8.815-2.911 9.29-7.567l3.071-30.007c.477-4.656-2.912-8.815-7.566-9.291l-.327-.034c-4.654-.477-8.814 2.91-9.291 7.566l-3.07 30.008z"/><path fill="#FBB03B" d="M130.531 244.795c.846 4.604 5.26 7.65 9.862 6.805l.323-.058c4.603-.845 7.649-5.26 6.806-9.864l-5.443-29.669c-.844-4.603-5.261-7.648-9.863-6.804l-.322.058c-4.603.844-7.649 5.259-6.805 9.862l5.442 29.67z"/><path fill="#F7931E" stroke="#FBB03B" stroke-width="16.813" stroke-miterlimit="10" d="M162.738 21.151c-51.254-25.5-117.534-12.944-143.66 39.565-26.124 52.509-2.2 125.087 49.053 150.587 51.251 25.5 107.965.156 140.102-48.904 31.483-48.059 5.757-115.748-45.495-141.248z"/><path fill="#f0f" d="M86.629 243.471l21.642 1.89s-1.891 14.06-12.2 13.039c-10.31-1.018-9.442-14.929-9.442-14.929z"/><path fill="#f0f" d="M129.335 244.301l21.196-1.803s1.683 15.173-8.614 16.317c-10.296 1.142-12.582-14.514-12.582-14.514z"/><path fill="#0065E3" d="M99.005 100.878c.345-2.944-3.03-6.562-6.128-6.925-3.098-.363-5.89 1.729-6.235 4.672-.345 2.943 1.79 6.577 4.888 6.941 3.098.364 7.13-1.745 7.475-4.688z"/><path fill="#0065E3" d="M153.707 103.234c.346-2.944-2.131-7.04-5.23-7.402-3.098-.364-7.189 2.673-7.534 5.616-.346 2.943 2.445 6.629 5.543 6.992 3.098.364 6.876-2.263 7.221-5.206z"/><path fill="#F7931E" stroke="#FBB03B" stroke-width="16.813" stroke-linecap="round" stroke-miterlimit="10" d="M86.844 147.904c21.567 18.313 44.86 18.375 62.445 2.727"/><path fill="#FBB03B" d="M43.003 32.797s35.118 13.345 75.855 12.642c40.736-.703 62.509-14.047 62.509-14.047s-40.033-22.475-71.64-23.178c-31.606-.701-66.724 24.583-66.724 24.583z"/><path fill="#FBB03B" d="M172.236 25.071s15.549 63.153 47.511 82.175c0 0 13.821-44.13-47.511-82.175z"/><path fill="#FBB03B" d="M51.432 29.286s-21.07 49.866-44.95 66.021c-.001-.001.701-41.439 44.95-66.021z"/><circle fill="#F79379" cx="62.471" cy="127.607" r="12.17"/><circle fill="#F79379" cx="170.823" cy="134.674" r="12.17"/></svg>