<svg xmlns="http://www.w3.org/2000/svg" width="243.25" height="404.826" viewBox="50.229 117.203 243.25 404.826" enable-background="new 50.229 117.203 243.25 404.826"><path fill="#FBB03B" d="M140.027 504.995c-.475 4.655 2.912 8.816 7.566 9.291l.327.034c4.654.476 8.815-2.911 9.29-7.567l3.071-30.007c.477-4.656-2.912-8.815-7.566-9.291l-.327-.034c-4.654-.477-8.814 2.91-9.291 7.566l-3.07 30.008z"/><path fill="#FBB03B" d="M180.76 507.95c.846 4.604 5.26 7.65 9.862 6.805l.323-.058c4.603-.845 7.649-5.26 6.806-9.864l-5.443-29.669c-.844-4.603-5.261-7.648-9.863-6.804l-.322.058c-4.603.844-7.649 5.259-6.805 9.862l5.442 29.67z"/><path fill="#F7931E" stroke="#FBB03B" stroke-width="16.813" stroke-miterlimit="10" d="M212.967 284.306c-51.254-25.5-117.534-12.944-143.66 39.565-26.124 52.509-2.2 125.087 49.053 150.587 51.251 25.5 107.965.156 140.102-48.904 31.483-48.059 5.757-115.748-45.495-141.248z"/><path fill="#f0f" d="M136.858 506.626l21.642 1.89s-1.891 14.06-12.2 13.039c-10.31-1.018-9.442-14.929-9.442-14.929z"/><path fill="#f0f" d="M179.564 507.456l21.196-1.803s1.683 15.173-8.614 16.317c-10.296 1.142-12.582-14.514-12.582-14.514z"/><path fill="#0065E3" d="M149.234 364.033c.345-2.944-3.03-6.562-6.128-6.925-3.098-.363-5.89 1.729-6.235 4.672s1.79 6.577 4.888 6.941c3.098.364 7.13-1.745 7.475-4.688z"/><path fill="#0065E3" d="M203.936 366.389c.346-2.944-2.131-7.04-5.23-7.402-3.098-.364-7.189 2.673-7.534 5.616-.346 2.943 2.445 6.629 5.543 6.992 3.098.364 6.876-2.263 7.221-5.206z"/><path fill="#F7931E" stroke="#FBB03B" stroke-width="16.813" stroke-linecap="round" stroke-miterlimit="10" d="M137.073 411.059c21.567 18.313 44.86 18.375 62.445 2.727"/><path fill="#FBB03B" d="M93.232 295.952s35.118 13.345 75.855 12.642c40.736-.703 62.509-14.047 62.509-14.047s-40.033-22.475-71.64-23.178c-31.606-.701-66.724 24.583-66.724 24.583z"/><path fill="#FBB03B" d="M222.465 288.226s15.549 63.153 47.511 82.175c0 0 13.821-44.13-47.511-82.175z"/><path fill="#FBB03B" d="M101.661 292.441s-21.07 49.866-44.95 66.021c-.001-.001.701-41.439 44.95-66.021z"/><circle fill="#F79379" cx="112.7" cy="390.762" r="12.17"/><circle fill="#F79379" cx="221.052" cy="397.829" r="12.17"/><circle fill="#fff" stroke="#231F20" cx="261.484" cy="211.398" r="31.494"/><path opacity=".15" fill="#231F20" d="M271.433 239.83c-11.329 0-20.512-12.952-20.512-28.929s9.183-28.929 20.512-28.929c.502 0 1 .056 1.495.107-3.552-1.387-7.401-2.176-11.443-2.176-17.394 0-31.495 14.101-31.495 31.495 0 17.393 14.101 31.494 31.495 31.494 5.752 0 11.129-1.568 15.769-4.262-1.846.771-3.798 1.2-5.821 1.2z"/><path opacity=".1" fill="#231F20" d="M236.84 202.075c0-4.442.768-8.691 2.113-12.659-5.538 5.675-8.963 13.424-8.963 21.981 0 17.393 14.101 31.494 31.495 31.494 4.319 0 8.427-.885 12.172-2.466-20.362-.183-36.817-17.275-36.817-38.35z"/><path fill="#fff" stroke="#231F20" d="M80.938 251.064s-16.447 4.685-16.447 15.703v24.19s-7.959 7.347-7.041 20.51c.918 13.163 19.35 28.776 114.982 30.919 95.632 2.143 99.613-29.388 99.613-29.388s-12.552-24.495-9.185-38.883c3.367-14.388-7.909-22.022-10.408-23.051-2.499-1.03-10.733-1.021-10.733-1.021l-160.781 1.021z"/><path opacity=".1" fill="#231F20" d="M262.86 274.115c.861-3.673.757-6.903.096-9.7-12.871 33.066-57.208 57.451-109.942 57.451-36.411 0-68.8-11.638-89.616-29.718-2.144 2.564-6.652 9.222-5.948 19.319.918 13.163 19.35 28.776 114.982 30.919 95.632 2.143 99.613-29.388 99.613-29.388s-12.552-24.495-9.185-38.883z"/><path opacity=".1" fill="#231F20" d="M262.86 274.115c3.367-14.388-7.909-22.022-10.408-23.051-2.18-.898-8.717-1.007-10.356-1.019 2.205 5.209 3.398 10.649 3.398 16.252 0 37.498-52.375 67.895-116.981 67.895-23.95 0-46.208-4.185-64.752-11.351 11.17 9.528 40.037 18.004 108.671 19.544 95.632 2.143 99.613-29.388 99.613-29.388s-12.552-24.494-9.185-38.882z"/><path fill="#CC4040" stroke="#231F20" d="M80.938 251.064s11.141-10.482 15.22-32.229c2.448-13.049-4.625-40.434 49.253-67.373 0 0 5.714-43.265 66.938-31.837 0 0 34.286 6.531 45.715 26.123 0 0 13.877 26.939 6.53 35.918-6.235 2.449-14.56 11.377-22.858 8.979-8.298-2.398-13.877-17.143-13.877-17.143s9.285 20.103 9.285 31.429c0 11.327-2.346 27.142-6.02 32.245-3.673 5.102 11.836 10.817 16.326 19.592.817 2.04 2.676 24.492-74.581 28.572-78.002 4.123-89.783-13.034-92.768-17.35-3.94-5.692.837-16.926.837-16.926z"/><path opacity=".1" fill="#F05A28" d="M215.846 240.104s5.864-7.946 7.296-11.02c8.838-18.98 9.584-36.791-4.133-49.208-5.667-5.129-14.19-12.62-25.102-15.384-15.505-3.927-33.351-2.009-33.351-2.009-6.572-.236-36.369-3.935-48.206 19.869s6.938 37.273 6.53 49.927c-.408 12.654-28.571 15.511-28.571 26.53 0 11.02 26.531 19.185 50.204 19.185 4.669 0 9.057-.139 13.149-.416 1.223.263 2.459.416 3.701.416 16.85 0 70.363-8.657 71.517-15.918 1.66-10.441-13.034-21.972-13.034-21.972z"/><path opacity=".1" fill="#F05A28" d="M230.309 171.054s8.77 6.29 18.788 9.307c10.021 3.016 14.766-1.73 14.766-1.73s-14.271 14.603-21.876 8.634c-7.602-5.969-11.678-16.211-11.678-16.211z"/><path opacity=".2" fill="#BE1E2D" d="M215.208 264.415c-54.834 0-99.746-33.072-110.075-78.393-8.491 14.163-6.478 25.901-7.884 33.4-4.079 21.747-15.307 32.354-15.307 32.354s-4.617 10.147-.674 15.843c3.214 4.646 16.019 20.359 91.712 16.594 60.64-3.014 71.551-17.355 73.287-24.356-10.199 2.644-19.881 4.558-31.059 4.558z"/><path opacity=".1" fill="#F05A28" d="M261.866 162.141s-4.229-10.563-14.495-18.772c-12.019-9.609-31.061-16.82-42.444-12.551-19.592 7.347-31.142 26.749-31.142 26.749 14.305-1.341 31.448 2.333 46.25 13.487 0 0 5.096-31.359 41.831-8.913z"/><path opacity=".25" fill="#BE1E2D" d="M231.178 184.849c-2.068-5.84-4.362-10.867-4.362-10.867 13.36 52.173-10.663 63.163-9.235 65.817s11.02 7.755 15.103 17.347c4.082 9.593-11.665 19.878-14.286 20.677-.973.297 21.582-4.348 27.169-15.906.804-1.662 1.053-3.772.88-4.362-.09-.306-1.398-2.452-2.181-3.253-1.395-1.425-3.023-3.214-5.548-5.166-4.385-3.389-9.299-6.952-9.299-10.025 0-2.679 1.555-3.541 1.99-4.745 4.228-11.694 5.051-28.623 3.98-34.592-.599-3.325-2.285-9.481-4.211-14.925z"/><path opacity=".25" fill="#BE1E2D" d="M250.326 138.404c-.245-.362-4.799-4.678-12.949-8.734-10.045-5.245-25.352-10.71-43.546-10.753-16.642-.16-27.804 4.766-35.013 11.212-8.649 7.731-11.657 17.55-12.245 22.079 0 0-13.546 6.582-23.495 14.35-6.824 5.327-15.191 12.704-20.396 24.222-1.783 3.947-3.09 8.246-3.865 13.355-.554 3.644-.45 7.687-1.11 12.437-1.378 9.911-4.453 16.606-6.122 20.549-3.482 8.227-9.643 14.656-9.643 14.656s-3.719 8.141-1.684 13.814c2.334 6.507 13.01 12.745 29.656 15.921 1.215.229-19.439-7.232-21.926-18.753-2.487-11.518 26.564-32.82 32.755-43.776 4.286-7.584 4.016-19.518 7.135-29.565 6.028-19.415 40.024-35.129 40.024-35.129s1.176-17.465 22.33-26.531c30.001-12.859 60.645 11.459 60.094 10.646z"/><path opacity=".15" fill="#BE1E2D" d="M191.38 127.283s-8.188 2.616-15.043 9.889c-2.322 2.474-5.16 6.235-7.028 11.442-.819 2.551-.867 3.015-1.406 5.673 0 0-19.532 9.209-31.801 21.852-2.866 2.955-4.73 5.576-6.149 8.487-5.368 11.013-4.618 23.756-7.564 30.835-.506 1.215-1.645 3.52-1.645 3.52s-4.182 6.023-11.25 13.087c-9.282 9.276-22.124 21.035-21.632 29.017.395 6.418 4.527 8.854 6.738 11.327 6.284 5.348 15.315 9.098 15.315 9.098s14.197 2.832 33.51 3.291c20.096.478 41.146-1.378 41.146-1.378-36.247-26.516-39.134-54.695-39.134-54.695s-6.661-20.837-2.013-36.686c11.02-31.048 27.912-34.476 27.912-34.476s3.08-17.412 25.427-27.361c22.952-10.218 58.062 12.959 58.062 12.959s-29.371-28.367-63.445-15.881"/></svg>