<svg xmlns="http://www.w3.org/2000/svg" width="210.341" height="168.144"><path clip-path="url(#SVGID_2_)" fill="#231F20" d="M126.979 107.741s43.449-3.015 59.616-48.234c0 0 1.01 13.867-.506 17.485 0 0 8.589-4.219 12.63-10.852 0 0-2.02 13.867-5.052 16.278 0 0 7.577-2.41 11.114-6.028 0 0 .001 10.852-3.031 13.866 0 0 5.052 1.81 8.589.604 0 0-25.767 35.572-63.153 30.146-37.385-5.427-20.207-13.265-20.207-13.265"/><path clip-path="url(#SVGID_2_)" fill="#FAAF3C" d="M57.246 156.972c-.312 3.053 1.91 5.782 4.962 6.094l.215.022c3.052.313 5.782-1.909 6.093-4.963l2.015-19.681c.313-3.054-1.909-5.782-4.963-6.094l-.215-.022c-3.052-.313-5.781 1.909-6.093 4.962l-2.014 19.682z"/><path clip-path="url(#SVGID_2_)" fill="#FAAF3C" d="M83.963 158.91c.555 3.019 3.45 5.017 6.469 4.463l.212-.038c3.019-.554 5.016-3.449 4.464-6.47l-3.57-19.459c-.554-3.02-3.451-5.018-6.469-4.464l-.211.039c-3.02.554-5.018 3.45-4.464 6.468l3.569 19.461z"/><path clip-path="url(#SVGID_2_)" fill="#F69221" d="M105.088 12.22c-33.617-16.726-77.092-8.489-94.227 25.951-17.135 34.441-1.443 82.045 32.174 98.771 33.616 16.726 70.815.103 91.894-32.077 20.649-31.522 3.775-75.919-29.841-92.645"/><path clip-path="url(#SVGID_2_)" stroke="#FAAF3C" stroke-width="7.722" stroke-miterlimit="10" d="M105.088 12.22c-33.617-16.726-77.092-8.489-94.227 25.951-17.135 34.441-1.443 82.045 32.174 98.771 33.616 16.726 70.815.103 91.894-32.077 20.649-31.522 3.775-75.919-29.841-92.645z" fill="none"/><path clip-path="url(#SVGID_2_)" fill="#B8529E" d="M55.167 158.041l14.195 1.24s-1.24 9.222-8.002 8.553c-6.762-.669-6.193-9.793-6.193-9.793"/><path clip-path="url(#SVGID_2_)" fill="#B8529E" d="M83.179 158.585l13.902-1.182s1.104 9.952-5.65 10.702c-6.753.749-8.252-9.52-8.252-9.52"/><path clip-path="url(#SVGID_2_)" fill="#F69221" d="M55.309 95.358c14.146 12.012 29.424 12.053 40.958 1.789"/><path clip-path="url(#SVGID_2_)" stroke="#FAAF3C" stroke-width="7.722" stroke-linecap="round" stroke-miterlimit="10" d="M55.309 95.358c14.146 12.012 29.424 12.053 40.958 1.789" fill="none"/><path clip-path="url(#SVGID_2_)" fill="#FAAF3C" d="M26.554 19.86s23.034 8.753 49.753 8.292c26.719-.461 41-9.214 41-9.214s-26.259-14.742-46.989-15.203c-20.731-.46-43.764 16.125-43.764 16.125"/><path clip-path="url(#SVGID_2_)" fill="#FAAF3C" d="M111.318 14.792s10.199 41.422 31.163 53.898c-.001 0 9.064-28.945-31.163-53.898"/><path clip-path="url(#SVGID_2_)" fill="#FAAF3C" d="M32.081 17.556s-13.821 32.708-29.483 43.304c0 0 .46-27.18 29.483-43.304"/><path clip-path="url(#SVGID_2_)" fill="#F5927A" d="M44.637 88.048c0 4.409-3.573 7.983-7.983 7.983-4.409 0-7.982-3.574-7.982-7.983s3.573-7.982 7.982-7.982c4.41 0 7.983 3.573 7.983 7.982"/><path clip-path="url(#SVGID_2_)" fill="#F5927A" d="M118.373 86.681c0 4.409-3.573 7.982-7.983 7.982-4.408 0-7.981-3.573-7.981-7.982 0-4.409 3.573-7.983 7.981-7.983 4.41 0 7.983 3.574 7.983 7.983"/><path clip-path="url(#SVGID_4_)" fill="#231F20" d="M6.011 48.589s104.076 5.557 132.368-6.063c0 0 8.589 13.137 8.589 26.777 0 0-59.616 12.63-64.163 7.073-4.547-5.558-8.59-4.042-11.115-.506-2.526 3.537-69.215 1.01-69.215 1.01s-3.537-17.176 3.536-28.291"/><path clip-path="url(#SVGID_4_)" fill="#3B68B1" d="M64.149 66.37c.227-1.931-1.987-4.304-4.019-4.542-2.033-.238-3.863 1.134-4.09 3.064-.227 1.931 1.174 4.314 3.206 4.553 2.032.238 4.677-1.145 4.903-3.075"/><path clip-path="url(#SVGID_4_)" fill="#3B68B1" d="M100.028 67.915c.227-1.931-1.398-4.618-3.431-4.855-2.031-.239-4.716 1.753-4.942 3.683-.227 1.93 1.604 4.348 3.635 4.586 2.034.239 4.512-1.484 4.738-3.414"/><path clip-path="url(#SVGID_4_)" fill="#231F20" d="M28.185 129.93l46.794 6.82 47.316-10.862 12.548-12.125-59.864 17.935-60.127-15.661c.001 0 4.968 7.83 13.333 13.893"/><path clip-path="url(#SVGID_4_)" fill="#FFF100" d="M81.491 132.961c0 3.348-2.804 6.063-6.265 6.063-3.46 0-6.264-2.714-6.264-6.063 0-3.348 2.804-6.063 6.264-6.063 3.461 0 6.265 2.714 6.265 6.063"/><ellipse clip-path="url(#SVGID_4_)" stroke="#231F20" stroke-width="2" stroke-miterlimit="10" cx="75.226" cy="132.961" rx="6.265" ry="6.063" fill="none"/></svg>